# xmcd
#
# Track frame offsets:
#	150
#	13175
#	29440
#	43002
#	55125
#	72400
#	89520
#	105162
#	119402
#	143925
#	156647
#	169742
#	187017
#	198110
#	214482
#	219767
#	221445
#	223260
#	225075
#	231492
#	236292
#	239442
#
# Disc length: 3315
#
# Revision: 1
# Processed by: cddbd v1.5.1PL0 Copyright (c) Steve Scherf et al.
# Submitted via: VisiTrax 2.9.5.180 - For more info visit www.synapsa.com
# Normalized: r0:DSETVAR1
#
DISCID=450cf116
DTITLE=Various Artist - CDX 135 May 1996
DYEAR=1996
DGENRE=
TTITLE0=LeAnn Rimes - Blue
TTITLE1=George Ducas - Every time she passes by
TTITLE2=Rob Crosby - Fallin' in and crawlin' out
TTITLE3=Suzy Bogguss - Give me some wheels
TTITLE4=Steve Wariner/Lee Roy Parnell/Richie Sambora - Guitar talk
TTITLE5=Bobbie Cryner - I didn't know my own strenth
TTITLE6=Charlie Major - I do it for the money
TTITLE7=Mark Wills - Jacob's ladder
TTITLE8=Mark Knopfler - Nobody's got the gun
TTITLE9=Clay Walker - Only on days that end in "Y"
TTITLE10=Confederate Railroad - See ya
TTITLE11=Billy Dean - That girl's been spyin' on me
TTITLE12=Lari White - Wild at heart
TTITLE13=Patricia Conroy - What else can I do
TTITLE14=Bill Engvall - I just hate stupid people
TTITLE15=Bill Engvall - Talked 'em into giving up
TTITLE16=Bill Engvall - Here's your sign dad
TTITLE17=Bill Engvall - How many boxes it takes
TTITLE18=Bill Engvall - Hemorrhoids and fan belts
TTITLE19=Bill Engvall - No dignity as parents
TTITLE20=Bill Engvall - Thanks for the wedgie Romeo
TTITLE21=Willie - Switchin Babies
EXTD=
EXTT0=
EXTT1=
EXTT2=
EXTT3=
EXTT4=
EXTT5=
EXTT6=
EXTT7=
EXTT8=
EXTT9=
EXTT10=
EXTT11=
EXTT12=
EXTT13=
EXTT14=
EXTT15=
EXTT16=
EXTT17=
EXTT18=
EXTT19=
EXTT20=
EXTT21=
PLAYORDER=
